PathFileType	4	(X/Y/Z)	C:\Users\italobelli\Desktop\GitHub\PTbot_officialCBL\Personal_Results\SHRUG03_noisy1.trc
DataRate	CameraRate	NumFrames	NumMarkers	Units	OrigDataRate	OrigDataStartFrame	OrigNumFrames
110.888889	110.888889	33	9	m	110.888889	188	500
Frame#	Time		gu		centelbow		EpL		centpxt8		centijc7		ts		aa		ai		ij
			X1	Y1	Z1	X2	Y2	Z2	X3	Y3	Z3	X4	Y4	Z4	X5	Y5	Z5	X6	Y6	Z6	X7	Y7	Z7	X8	Y8	Z8	X9	Y9	Z9

188	1.6864	-0.065816	0.050812	0.16322	-0.083616	-0.18834	0.23268	-0.060789	-0.17953	0.25376	-0.046816	-0.15316	-0.008669	-0.046816	0.031938	-0.008669	-0.1273	0.055323	0.047011	-0.089257	0.089065	0.15564	-0.14423	-0.048599	0.090404	0	0	0
189	1.6954	-0.065887	0.050822	0.16328	-0.083574	-0.18817	0.23261	-0.060772	-0.17936	0.25371	-0.046816	-0.15316	-0.008669	-0.046816	0.031938	-0.008669	-0.12731	0.055319	0.046986	-0.089335	0.089051	0.15565	-0.14431	-0.048601	0.09035	0	0	0
190	1.7044	-0.065961	0.050818	0.16333	-0.083543	-0.18801	0.23252	-0.060766	-0.1792	0.25365	-0.046816	-0.15316	-0.008669	-0.046816	0.031938	-0.008669	-0.12733	0.055315	0.046962	-0.089416	0.089025	0.15567	-0.1444	-0.048605	0.090288	0	0	0
191	1.7134	-0.066037	0.050798	0.16339	-0.08352	-0.18786	0.23242	-0.06077	-0.17905	0.25358	-0.046816	-0.15316	-0.008669	-0.046816	0.031938	-0.008669	-0.12734	0.055311	0.04694	-0.089499	0.088985	0.15569	-0.14449	-0.048612	0.090218	0	0	0
192	1.7224	-0.066117	0.050764	0.16345	-0.083507	-0.18773	0.23232	-0.060784	-0.17893	0.25351	-0.046816	-0.15316	-0.008669	-0.046816	0.031938	-0.008669	-0.12735	0.055306	0.046921	-0.089585	0.088933	0.15572	-0.14459	-0.04862	0.09014	0	0	0
193	1.7315	-0.066198	0.050715	0.16351	-0.083503	-0.18761	0.2322	-0.060808	-0.17881	0.25342	-0.046816	-0.15316	-0.008669	-0.046816	0.031938	-0.008669	-0.12737	0.055301	0.046903	-0.089673	0.088869	0.15575	-0.14469	-0.048631	0.090055	0	0	0
194	1.7405	-0.066283	0.050652	0.16357	-0.083509	-0.18751	0.23208	-0.060842	-0.17871	0.25333	-0.046816	-0.15316	-0.008669	-0.046816	0.031938	-0.008669	-0.12738	0.055296	0.046887	-0.089763	0.088792	0.15579	-0.14479	-0.048644	0.089963	0	0	0
195	1.7495	-0.066369	0.050574	0.16362	-0.083523	-0.18742	0.23194	-0.060886	-0.17863	0.25322	-0.046816	-0.15316	-0.008669	-0.046816	0.031938	-0.008669	-0.1274	0.05529	0.046873	-0.089856	0.088702	0.15583	-0.1449	-0.04866	0.089863	0	0	0
196	1.7585	-0.066458	0.050483	0.16368	-0.083548	-0.18734	0.23179	-0.060941	-0.17856	0.25311	-0.046816	-0.15316	-0.008669	-0.046816	0.031938	-0.008669	-0.12741	0.055283	0.04686	-0.089951	0.088601	0.15587	-0.14501	-0.048678	0.089756	0	0	0
197	1.7675	-0.06655	0.050378	0.16374	-0.083581	-0.18728	0.23164	-0.061005	-0.17851	0.25299	-0.046816	-0.15316	-0.008669	-0.046816	0.031938	-0.008669	-0.12743	0.055276	0.04685	-0.090048	0.088487	0.15591	-0.14513	-0.048699	0.089642	0	0	0
198	1.7766	-0.066643	0.050259	0.1638	-0.083624	-0.18723	0.23147	-0.06108	-0.17847	0.25287	-0.046816	-0.15316	-0.008669	-0.046816	0.031938	-0.008669	-0.12744	0.055269	0.046842	-0.090147	0.088362	0.15596	-0.14524	-0.048722	0.089522	0	0	0
199	1.7856	-0.066739	0.050127	0.16386	-0.083676	-0.1872	0.2313	-0.061164	-0.17845	0.25273	-0.046816	-0.15316	-0.008669	-0.046816	0.031938	-0.008669	-0.12746	0.055261	0.046836	-0.090249	0.088224	0.15602	-0.14537	-0.048747	0.089394	0	0	0
200	1.7946	-0.066837	0.049981	0.16392	-0.083738	-0.18718	0.23112	-0.061258	-0.17844	0.25259	-0.046816	-0.15316	-0.008669	-0.046816	0.031938	-0.008669	-0.12748	0.055253	0.046831	-0.090352	0.088076	0.15607	-0.14549	-0.048776	0.089261	0	0	0
201	1.8036	-0.066937	0.049823	0.16398	-0.083808	-0.18717	0.23093	-0.061362	-0.17845	0.25244	-0.046816	-0.15316	-0.008669	-0.046816	0.031938	-0.008669	-0.12749	0.055244	0.046829	-0.090458	0.087915	0.15613	-0.14562	-0.048806	0.089121	0	0	0
202	1.8126	-0.067039	0.049652	0.16404	-0.083889	-0.18718	0.23073	-0.061476	-0.17848	0.25228	-0.046816	-0.15316	-0.008669	-0.046816	0.031938	-0.008669	-0.12751	0.055235	0.046828	-0.090566	0.087743	0.1562	-0.14574	-0.04884	0.088975	0	0	0
203	1.8216	-0.067142	0.049468	0.1641	-0.083978	-0.1872	0.23053	-0.0616	-0.17852	0.25211	-0.046816	-0.15316	-0.008669	-0.046816	0.031938	-0.008669	-0.12753	0.055225	0.046829	-0.090676	0.08756	0.15626	-0.14587	-0.048876	0.088823	0	0	0
204	1.8307	-0.067248	0.049272	0.16416	-0.084077	-0.18724	0.23031	-0.061733	-0.17857	0.25194	-0.046816	-0.15316	-0.008669	-0.046816	0.031938	-0.008669	-0.12755	0.055214	0.046833	-0.090788	0.087365	0.15633	-0.14601	-0.048914	0.088665	0	0	0
205	1.8397	-0.067355	0.049063	0.16421	-0.084185	-0.18729	0.23009	-0.061876	-0.17864	0.25176	-0.046816	-0.15316	-0.008669	-0.046816	0.031938	-0.008669	-0.12756	0.055204	0.046838	-0.090901	0.08716	0.15641	-0.14614	-0.048956	0.088502	0	0	0
206	1.8487	-0.067464	0.048843	0.16427	-0.084303	-0.18736	0.22986	-0.062028	-0.17873	0.25157	-0.046816	-0.15316	-0.008669	-0.046816	0.031938	-0.008669	-0.12758	0.055192	0.046845	-0.091017	0.086943	0.15648	-0.14628	-0.049	0.088333	0	0	0
207	1.8577	-0.067574	0.04861	0.16433	-0.08443	-0.18744	0.22962	-0.062191	-0.17884	0.25137	-0.046816	-0.15316	-0.008669	-0.046816	0.031938	-0.008669	-0.1276	0.05518	0.046855	-0.091135	0.086716	0.15656	-0.14642	-0.049047	0.088159	0	0	0
208	1.8667	-0.067686	0.048366	0.16439	-0.084567	-0.18754	0.22938	-0.062362	-0.17896	0.25117	-0.046816	-0.15316	-0.008669	-0.046816	0.031938	-0.008669	-0.12762	0.055168	0.046866	-0.091254	0.086478	0.15664	-0.14656	-0.049097	0.087979	0	0	0
209	1.8758	-0.067799	0.04811	0.16445	-0.084712	-0.18765	0.22913	-0.062544	-0.17909	0.25096	-0.046816	-0.15316	-0.008669	-0.046816	0.031938	-0.008669	-0.12764	0.055155	0.046879	-0.091375	0.086229	0.15673	-0.1467	-0.049149	0.087795	0	0	0
210	1.8848	-0.067914	0.047844	0.1645	-0.084868	-0.18777	0.22887	-0.062735	-0.17924	0.25075	-0.046816	-0.15316	-0.008669	-0.046816	0.031938	-0.008669	-0.12766	0.055142	0.046894	-0.091498	0.08597	0.15682	-0.14684	-0.049205	0.087606	0	0	0
211	1.8938	-0.06803	0.047566	0.16456	-0.085032	-0.18792	0.22861	-0.062935	-0.17941	0.25053	-0.046816	-0.15316	-0.008669	-0.046816	0.031938	-0.008669	-0.12768	0.055127	0.046911	-0.091623	0.0857	0.15691	-0.14698	-0.049263	0.087412	0	0	0
212	1.9028	-0.068147	0.047277	0.16461	-0.085206	-0.18807	0.22834	-0.063145	-0.1796	0.2503	-0.046816	-0.15316	-0.008669	-0.046816	0.031938	-0.008669	-0.12771	0.055113	0.046931	-0.091749	0.08542	0.157	-0.14713	-0.049324	0.087214	0	0	0
213	1.9118	-0.068265	0.046977	0.16467	-0.08539	-0.18824	0.22806	-0.063364	-0.1798	0.25007	-0.046816	-0.15316	-0.008669	-0.046816	0.031938	-0.008669	-0.12773	0.055098	0.046952	-0.091877	0.085131	0.15709	-0.14727	-0.049388	0.087011	0	0	0
214	1.9208	-0.068384	0.046667	0.16472	-0.085582	-0.18843	0.22778	-0.063592	-0.18001	0.24983	-0.046816	-0.15316	-0.008669	-0.046816	0.031938	-0.008669	-0.12775	0.055082	0.046975	-0.092006	0.084831	0.15719	-0.14742	-0.049456	0.086805	0	0	0
215	1.9299	-0.068505	0.046346	0.16478	-0.085784	-0.18863	0.22749	-0.06383	-0.18025	0.24959	-0.046816	-0.15316	-0.008669	-0.046816	0.031938	-0.008669	-0.12777	0.055065	0.047	-0.092137	0.084521	0.15729	-0.14756	-0.049526	0.086594	0	0	0
216	1.9389	-0.068626	0.046016	0.16483	-0.085996	-0.18885	0.2272	-0.064077	-0.1805	0.24934	-0.046816	-0.15316	-0.008669	-0.046816	0.031938	-0.008669	-0.1278	0.055048	0.047028	-0.09227	0.084201	0.15739	-0.14771	-0.049599	0.086379	0	0	0
217	1.9479	-0.068748	0.045675	0.16488	-0.086217	-0.18908	0.2269	-0.064333	-0.18076	0.24909	-0.046816	-0.15316	-0.008669	-0.046816	0.031938	-0.008669	-0.12782	0.055031	0.047057	-0.092404	0.083872	0.1575	-0.14785	-0.049676	0.086161	0	0	0
218	1.9569	-0.068871	0.045325	0.16494	-0.086447	-0.18933	0.22659	-0.064598	-0.18104	0.24883	-0.046816	-0.15316	-0.008669	-0.046816	0.031938	-0.008669	-0.12785	0.055013	0.047088	-0.09254	0.083534	0.1576	-0.148	-0.049755	0.085939	0	0	0
219	1.9659	-0.068994	0.044965	0.16499	-0.086687	-0.18959	0.22629	-0.064872	-0.18134	0.24856	-0.046816	-0.15316	-0.008669	-0.046816	0.031938	-0.008669	-0.12788	0.054994	0.047122	-0.092676	0.083186	0.15771	-0.14814	-0.049838	0.085714	0	0	0
220	1.9749	-0.069118	0.044596	0.16504	-0.086936	-0.18987	0.22597	-0.065156	-0.18166	0.24829	-0.046816	-0.15316	-0.008669	-0.046816	0.031938	-0.008669	-0.1279	0.054974	0.047157	-0.092815	0.082828	0.15782	-0.14829	-0.049924	0.085486	0	0	0
